<svg xmlns="http://www.w3.org/2000/svg" viewBox="0 0 332.49 311.65"><defs><style>.cls-1{fill:#ffc200;}.cls-2{fill:#2093fa;}.cls-3{fill:#ff5600;}.cls-4{font-size:70px;font-family:CoolveticaRg-Regular, Coolvetica;}.cls-5{letter-spacing:-0.05em;}.cls-6{letter-spacing:-0.01em;}</style></defs><title>turistando logo</title><g id="Cam"><path class="cls-1" d="M670.72,211.55l.37,0H800.33A152.28,152.28,0,0,0,662.14,123c-84.11,0-152.3,68.42-152.3,152.82a152.58,152.58,0,0,0,20.29,76.27c0-1.38-.07-2.77-.07-4.17C530.06,273.08,592.9,212.33,670.72,211.55Z" transform="translate(-509.84 -122.99)"/></g><g id="Cam2"><path class="cls-2" d="M588.16,207.77v0c-42.31,1.2-76.28,39.88-76.28,87.44a93.31,93.31,0,0,0,18.8,56.84c1.61-36.14,27.29-65.19,59.5-67.6h.17c1.37-.1,2.75-.17,4.15-.17s2.77.07,4.14.17h69.24a1,1,0,0,0,0-.17h99.92c41.18,0,74.55-30.57,74.55-68.28v-8.25Z" transform="translate(-509.84 -122.99)"/><path class="cls-3" d="M589.69,238.85v0c-41.49,1-74.81,32.7-74.81,71.68a68.7,68.7,0,0,0,18.44,46.6c1.58-29.63,26.77-53.44,58.36-55.41h.17c1.34-.09,2.7-.14,4.06-.14s2.72.05,4.07.14h67.91a.59.59,0,0,0,0-.14h98c40.38,0,73.12-25.06,73.12-56v-6.76Z" transform="translate(-509.84 -122.99)"/></g><g id="Fonte"></g></svg>